HIERARCHY
ROOT Hips
{
	OFFSET 0.00000 0.00000 0.00000
	CHANNELS 6 Xposition Yposition Zposition Zrotation Yrotation Xrotation 
	JOINT LHipJoint
	{
		OFFSET 0 0 0
		CHANNELS 3 Zrotation Yrotation Xrotation
		JOINT LeftHip
		{
			OFFSET 1.64577 -1.42384 0.94276
			CHANNELS 3 Zrotation Yrotation Xrotation
			JOINT LeftKnee
			{
				OFFSET 2.11538 -5.81197 0.00000
				CHANNELS 3 Zrotation Yrotation Xrotation
				JOINT LeftAnkle
				{
					OFFSET 2.36541 -6.49893 0.00000
					CHANNELS 3 Zrotation Yrotation Xrotation
					JOINT LeftToe
					{
						OFFSET 0.17759 -0.48793 1.73865
						CHANNELS 3 Zrotation Yrotation Xrotation
						End Site
						{
							OFFSET 0.00000 -0.00000 0.91205
						}
					}
				}
			}
		}
	}
	JOINT RHipJoint
	{
		OFFSET 0 0 0
		CHANNELS 3 Zrotation Yrotation Xrotation
		JOINT RightHip
		{
			OFFSET -1.43750 -1.42384 0.94276
			CHANNELS 3 Zrotation Yrotation Xrotation
			JOINT RightKnee
			{
				OFFSET -2.10480 -5.78291 0.00000
				CHANNELS 3 Zrotation Yrotation Xrotation
				JOINT RightAnkle
				{
					OFFSET -2.34880 -6.45329 0.00000
					CHANNELS 3 Zrotation Yrotation Xrotation
					JOINT RightToe
					{
						OFFSET -0.22842 -0.62757 1.80469
						CHANNELS 3 Zrotation Yrotation Xrotation
						End Site
						{
							OFFSET -0.00000 -0.00000 0.95886
						}
					}
				}
			}
		}
	}
	JOINT lowerback
	{
		OFFSET 0 0 0
		CHANNELS 3 Zrotation Yrotation Xrotation
		JOINT Chest
		{
			OFFSET 0.06217 1.93758 -0.49272
			CHANNELS 3 Zrotation Yrotation Xrotation
			JOINT Chest2
			{
				OFFSET -0.03114 2.03621 -0.05830
				CHANNELS 3 Zrotation Yrotation Xrotation
				JOINT lowerneck
				{
					OFFSET 0 0 0
					CHANNELS 3 Zrotation Yrotation Xrotation
					JOINT Neck
					{
						OFFSET 0.04421 1.41010 0.26562
						CHANNELS 3 Zrotation Yrotation Xrotation
						JOINT Head
						{
							OFFSET -0.13407 1.43847 0.06181
							CHANNELS 3 Zrotation Yrotation Xrotation
							End Site
							{
								OFFSET -0.04980 1.45844 -0.00689
							}
						}
					}
				}
				JOINT LeftCollar
				{
					OFFSET 0 0 0
					CHANNELS 3 Zrotation Yrotation Xrotation
					JOINT LeftShoulder
					{
						OFFSET 2.18382 1.47753 -0.35694
CHANNELS 3 Zrotation Xrotation Yrotation
						JOINT LeftElbow
						{
OFFSET 0 -5.054600 0.000000
CHANNELS 3 Zrotation Xrotation Yrotation
							JOINT LeftWrist
							{
OFFSET 0 -3.390130 0.000000
CHANNELS 3 Zrotation Xrotation Yrotation
								JOINT lhand
								{
									OFFSET 0 0 0
CHANNELS 3 Zrotation Xrotation Yrotation
									JOINT LFingers
									{
OFFSET 0 -0.572420 -0.000000
CHANNELS 3 Zrotation Xrotation Yrotation
										End Site
										{
OFFSET 0 -0.461500 -0.000000
										}
									}
								}
								JOINT LThumb
								{
OFFSET 0 0.000000 0.000000
CHANNELS 3 Zrotation Xrotation Yrotation
									End Site
									{
OFFSET 0 -0.468550 0.468550
									}
								}
							}
						}
					}
				}
				JOINT RightCollar
				{
					OFFSET 0 0 0
					CHANNELS 3 Zrotation Yrotation Xrotation
					JOINT RightShoulder
					{
						OFFSET -2.06033 1.72839 -0.47437
CHANNELS 3 Zrotation Xrotation Yrotation
						JOINT RightElbow
						{
OFFSET 0 -5.070100 0.000000
CHANNELS 3 Zrotation Xrotation Yrotation
							JOINT RightWrist
							{
OFFSET 0 -3.149570 -0.000000
CHANNELS 3 Zrotation Xrotation Yrotation
								JOINT rhand
								{
									OFFSET 0 0 0
CHANNELS 3 Zrotation Xrotation Yrotation
									JOINT RFingers
									{
OFFSET 0 -0.718190 -0.000000
CHANNELS 3 Zrotation Xrotation Yrotation
										End Site
										{
OFFSET 0 -0.579020 -0.000000
										}
									}
								}
								JOINT RThumb
								{
OFFSET 0 0.000000 0.000000
CHANNELS 3 Zrotation Xrotation Yrotation
									End Site
									{
OFFSET 0 -0.587860 0.587860
									}
								}
							}
						}
					}
				}
			}
		}
	}
}
MOTION
Frames: 10
Frame Time: 0.008333333333333333
16.776800 15.506200 -0.568900 -177.206000 -82.515600 174.915000 0.000000 0.000000 0.000000 -22.847700 -17.245200 6.604600 1.200600 6.952000 19.573200 0.799400 19.965700 -33.527800 0.004000 0.410900 1.129000 0.000000 0.000000 0.000000 24.796300 15.957800 6.235800 -1.003500 -6.374400 17.874800 -2.442900 -21.214700 -42.909800 -0.140600 2.416800 -6.659000 -1.566900 1.866600 2.601200 -1.448800 2.422800 2.634100 -0.643500 1.177400 1.241100 6.361600 1.844600 -3.767500 -0.683700 2.112700 4.034800 -1.248200 1.127800 2.005700 -0.000000 0.000000 0.000000 3.289000 -0.129900 -27.471100 13.003600 -21.292500 2.454600 17.103800 6.469500 -9.971200 0.000000 0.000000 0.000000 -7.125000 0.000000 0.000000 -8.696100 40.253000 -1.026600 -0.000000 0.000000 0.000000 -2.196200 4.875800 37.535300 -17.325200 -27.284400 -4.235300 -15.851600 -18.730500 -3.560000 0.000000 0.000000 0.000000 7.125000 0.000000 -0.000000 8.162600 26.263700 3.743700
16.778865 15.509648 -0.570200 -176.292902 -82.519245 173.993224 0.000000 0.000000 0.000000 -22.725081 -17.341784 6.567448 1.217661 6.999561 19.714102 0.853868 19.835690 -33.704302 0.004971 0.454580 1.249114 0.000000 0.000000 0.000000 24.962614 16.004107 6.419007 -0.978278 -6.296272 17.646428 -2.420438 -21.330103 -42.913988 -0.148306 2.481864 -6.839449 -1.431026 1.830078 2.642267 -1.444535 2.375397 2.647777 -0.715452 1.155732 1.237362 6.373835 1.865303 -3.849993 -0.628706 2.130148 4.059458 -1.231784 1.138229 2.028635 0.000000 0.000000 0.000000 3.328399 -0.156462 -27.497163 13.129550 -21.476721 2.500634 18.451996 5.418525 -7.016160 0.000000 0.000000 0.000000 -7.125000 0.000000 0.000000 -7.081910 37.287988 -1.350423 0.000000 0.000000 0.000000 -2.143884 4.778446 37.634870 -17.230218 -27.160272 -4.191906 -15.818071 -18.846719 -3.912461 0.000000 0.000000 0.000000 7.125000 0.000000 0.000000 8.167378 25.901639 3.815797
16.779935 15.509713 -0.569910 -176.401496 -82.531727 174.096464 0.000000 0.000000 0.000000 -22.753324 -17.383518 6.605773 1.214364 6.990432 19.686916 0.858628 19.830631 -33.726862 0.007268 0.550446 1.512682 0.000000 0.000000 0.000000 24.951635 16.038482 6.409136 -0.981703 -6.306910 17.677548 -2.412942 -21.368911 -42.915814 -0.146829 2.469311 -6.804494 -1.439420 1.831818 2.671156 -1.445332 2.376737 2.632854 -0.712792 1.156544 1.205560 6.358707 1.856910 -3.835097 -0.628147 2.120659 4.074334 -1.229256 1.133617 2.030121 0.000000 0.000000 0.000000 3.301101 -0.139289 -27.634279 13.343090 -21.787791 2.579237 19.101666 4.497809 -5.672816 0.000000 0.000000 0.000000 -7.125000 0.000000 0.000000 -6.372627 35.918538 -1.426650 0.000000 0.000000 0.000000 -2.142033 4.805016 37.547018 -17.215010 -27.140299 -4.184915 -15.716703 -18.714397 -3.969187 0.000000 0.000000 0.000000 7.125000 0.000000 0.000000 8.240546 25.845076 3.861500
16.777971 15.508071 -0.568526 -177.044588 -82.571890 174.742716 0.000000 0.000000 0.000000 -22.847593 -17.345818 6.605156 1.211912 6.983642 19.666859 0.851367 19.820787 -33.673289 0.006300 0.512197 1.407459 0.000000 0.000000 0.000000 24.813147 15.918007 6.348795 -0.983537 -6.312614 17.694160 -2.416449 -21.300111 -42.870960 -0.149362 2.490302 -6.862657 -1.497273 1.821815 2.631873 -1.470418 2.363414 2.625913 -0.704791 1.149099 1.219084 6.361678 1.862791 -3.837011 -0.647469 2.128602 4.113837 -1.235830 1.137965 2.044181 0.000000 0.000000 0.000000 3.275791 0.017758 -27.400786 13.271171 -21.683261 2.552656 19.731433 4.959185 -4.345982 0.000000 0.000000 0.000000 -7.125000 0.000000 0.000000 -5.713501 34.550643 -1.468206 0.000000 0.000000 0.000000 -2.148931 4.823171 37.442255 -17.238565 -27.171222 -4.195715 -15.697531 -18.318816 -3.464289 0.000000 0.000000 0.000000 7.125000 0.000000 0.000000 8.284853 26.364287 3.781061
16.777900 15.507923 -0.567868 -177.361080 -82.591807 175.054369 0.000000 0.000000 0.000000 -22.895696 -17.334074 6.640979 1.203892 6.961311 19.600820 0.844185 19.826817 -33.637503 0.006145 0.506890 1.392789 0.000000 0.000000 0.000000 24.750604 15.874436 6.285950 -0.992912 -6.341700 17.779033 -2.420468 -21.266161 -42.858571 -0.154524 2.533017 -6.981291 -1.521330 1.813176 2.625576 -1.485542 2.351530 2.626281 -0.706461 1.142802 1.222627 6.370377 1.871347 -3.841591 -0.661827 2.139848 4.121887 -1.241663 1.143508 2.048536 0.000000 0.000000 0.000000 3.256945 0.130333 -27.304845 13.361886 -21.815114 2.586233 20.262484 4.864438 -3.232982 0.000000 0.000000 0.000000 -7.125000 0.000000 0.000000 -5.180634 33.392610 -1.477531 0.000000 0.000000 0.000000 -2.143706 4.801918 37.347512 -17.216938 -27.142897 -4.185837 -15.644457 -18.001666 -3.199198 0.000000 0.000000 0.000000 7.125000 0.000000 0.000000 8.341663 26.637262 3.753562
16.778045 15.507800 -0.567306 -177.806379 -82.607668 175.491022 0.000000 0.000000 0.000000 -22.962089 -17.318939 6.681339 1.194821 6.936036 19.525948 0.832310 19.849861 -33.593065 0.005706 0.487860 1.340517 0.000000 0.000000 0.000000 24.670766 15.828525 6.220209 -1.002925 -6.372765 17.869871 -2.420935 -21.238860 -42.837023 -0.162267 2.595392 -7.154414 -1.564855 1.807418 2.621755 -1.504057 2.343005 2.628749 -0.700869 1.137815 1.226410 6.391158 1.881012 -3.848035 -0.689669 2.152574 4.123226 -1.253933 1.149566 2.051588 0.000000 0.000000 0.000000 3.239855 0.244552 -27.212834 13.451011 -21.944374 2.619456 20.612489 4.897749 -2.535717 0.000000 0.000000 0.000000 -7.125000 0.000000 0.000000 -4.843483 32.662436 -1.467419 0.000000 0.000000 0.000000 -2.139225 4.775138 37.248042 -17.192687 -27.111059 -4.174778 -15.590800 -17.679494 -2.934442 0.000000 0.000000 0.000000 7.125000 0.000000 0.000000 8.399555 26.909859 3.725788
16.778549 15.507858 -0.567100 -178.321513 -82.616156 175.993960 0.000000 0.000000 0.000000 -23.039417 -17.309430 6.727486 1.185671 6.910343 19.450044 0.822859 19.869034 -33.558549 0.005790 0.492472 1.353220 0.000000 0.000000 0.000000 24.588789 15.799950 6.167756 -1.012345 -6.401741 17.954704 -2.421369 -21.221279 -42.823680 -0.171596 2.668318 -7.356798 -1.621228 1.804851 2.625028 -1.525452 2.338322 2.633189 -0.691248 1.134480 1.227816 6.421387 1.888521 -3.864496 -0.723833 2.161437 4.129229 -1.269947 1.153869 2.058132 0.000000 0.000000 0.000000 3.229540 0.333767 -27.151146 13.531123 -22.060398 2.649470 20.817724 4.963609 -2.195360 0.000000 0.000000 0.000000 -7.125000 0.000000 0.000000 -4.654158 32.305238 -1.450424 0.000000 0.000000 0.000000 -2.132327 4.744517 37.163907 -17.165227 -27.074979 -4.162261 -15.539327 -17.422064 -2.756011 0.000000 0.000000 0.000000 7.125000 0.000000 0.000000 8.450614 27.093581 3.712069
16.779207 15.507968 -0.567168 -178.892010 -82.619220 176.550876 0.000000 0.000000 0.000000 -23.127370 -17.310118 6.786234 1.175529 6.881671 19.365357 0.817360 19.876323 -33.534090 0.007220 0.548736 1.507981 0.000000 0.000000 0.000000 24.506891 15.795288 6.122669 -1.022639 -6.433188 18.046742 -2.429752 -21.196671 -42.838186 -0.180012 2.732769 -7.535637 -1.688389 1.806159 2.630482 -1.548640 2.338349 2.638928 -0.677611 1.133261 1.228984 6.451555 1.892056 -3.891072 -0.755433 2.163836 4.146285 -1.285347 1.155203 2.069805 0.000000 0.000000 0.000000 3.225409 0.382405 -27.131059 13.587976 -22.142641 2.670867 20.917515 5.017854 -2.141001 0.000000 0.000000 0.000000 -7.125000 0.000000 0.000000 -4.570246 32.249637 -1.430422 0.000000 0.000000 0.000000 -2.125033 4.720296 37.102776 -17.143994 -27.047209 -4.152588 -15.491061 -17.263946 -2.679585 0.000000 0.000000 0.000000 7.125000 0.000000 0.000000 8.492455 27.172396 3.714980
16.779710 15.507923 -0.567432 -179.461058 -82.620032 177.108312 0.000000 0.000000 0.000000 -23.217709 -17.319888 6.847747 1.165916 6.854354 19.284614 0.815116 19.872120 -33.515993 0.010124 0.647765 1.780130 0.000000 0.000000 0.000000 24.428044 15.803027 6.085644 -1.032207 -6.462330 18.132019 -2.446446 -21.157425 -42.875710 -0.186096 2.778396 -7.662392 -1.758179 1.808759 2.630273 -1.570628 2.340427 2.645038 -0.661093 1.133023 1.233606 6.470435 1.894559 -3.926470 -0.776184 2.164210 4.174367 -1.295332 1.155765 2.086271 0.000000 0.000000 0.000000 3.224777 0.394291 -27.137343 13.607074 -22.170186 2.678024 20.962291 5.086187 -2.280069 0.000000 0.000000 0.000000 -7.125000 0.000000 0.000000 -4.543355 32.399142 -1.405554 0.000000 0.000000 0.000000 -2.123100 4.708668 37.075981 -17.137296 -27.038454 -4.149525 -15.455091 -17.208847 -2.669544 0.000000 0.000000 0.000000 7.125000 0.000000 0.000000 8.520587 27.182934 3.725356
16.780061 15.507900 -0.567936 -179.888851 -82.616788 177.528623 0.000000 0.000000 0.000000 -23.287603 -17.332670 6.900038 1.158336 6.832952 19.221354 0.815759 19.857280 -33.503437 0.014286 0.770666 2.117925 0.000000 0.000000 0.000000 24.371590 15.819653 6.061507 -1.039503 -6.484396 18.196656 -2.465376 -21.115821 -42.920578 -0.189466 2.803070 -7.731038 -1.814055 1.809910 2.622480 -1.585370 2.341074 2.653272 -0.644615 1.132216 1.244909 6.473936 1.900416 -3.970714 -0.783534 2.168657 4.209981 -1.298046 1.158514 2.106458 0.000000 0.000000 0.000000 3.222709 0.385401 -27.142676 13.604281 -22.166177 2.676957 21.016707 5.165800 -2.463620 0.000000 0.000000 0.000000 -7.125000 0.000000 0.000000 -4.511704 32.596313 -1.374218 0.000000 0.000000 0.000000 -2.130246 4.700464 37.082447 -17.139850 -27.041722 -4.150694 -15.435964 -17.216520 -2.687045 0.000000 0.000000 0.000000 7.125000 0.000000 0.000000 8.533953 27.165194 3.734933
